<?xml version="1.0" encoding="UTF-8" standalone="no"?>
<svg
   xmlns:dc="http://purl.org/dc/elements/1.1/"
   xmlns:cc="http://creativecommons.org/ns#"
   xmlns:rdf="http://www.w3.org/1999/02/22-rdf-syntax-ns#"
   xmlns:svg="http://www.w3.org/2000/svg"
   xmlns="http://www.w3.org/2000/svg"
   xmlns:sodipodi="http://sodipodi.sourceforge.net/DTD/sodipodi-0.dtd"
   xmlns:inkscape="http://www.inkscape.org/namespaces/inkscape"
   width="7.9772263mm"
   height="7.8625078mm"
   viewBox="0 0 7.9772263 7.8625078"
   version="1.1"
   id="svg8"
   inkscape:version="1.0.1 (3bc2e813f5, 2020-09-07)"
   sodipodi:docname="drawing.svg">
  <defs
     id="defs2" />
  <sodipodi:namedview
     id="base"
     pagecolor="#818181"
     bordercolor="#666666"
     borderopacity="1.0"
     inkscape:pageopacity="0"
     inkscape:pageshadow="2"
     inkscape:zoom="22.4"
     inkscape:cx="21.658267"
     inkscape:cy="15.809602"
     inkscape:document-units="mm"
     inkscape:current-layer="layer1"
     inkscape:document-rotation="0"
     showgrid="false"
     inkscape:window-width="2560"
     inkscape:window-height="1377"
     inkscape:window-x="-8"
     inkscape:window-y="-8"
     inkscape:window-maximized="1"
     fit-margin-top="0"
     fit-margin-left="0"
     fit-margin-right="0"
     fit-margin-bottom="0" />
  <metadata
     id="metadata5">
    <rdf:RDF>
      <cc:Work
         rdf:about="">
        <dc:format>image/svg+xml</dc:format>
        <dc:type
           rdf:resource="http://purl.org/dc/dcmitype/StillImage" />
        <dc:title></dc:title>
      </cc:Work>
    </rdf:RDF>
  </metadata>
  <g
     inkscape:label="Layer 1"
     inkscape:groupmode="layer"
     id="layer1"
     transform="translate(-100.14665,-133.87563)">
    <path
       style="fill:#ffffff;stroke-width:0.0118118"
       d="m 100.39207,141.71782 c -0.06,-0.0296 -0.18214,-0.15597 -0.21479,-0.22232 -0.0405,-0.0824 -0.0409,-0.21164 -7.9e-4,-0.29312 0.0327,-0.0665 0.12366,-0.16292 0.20807,-0.22068 0.0555,-0.038 0.066,-0.0407 0.17474,-0.0451 l 0.11568,-0.005 -0.006,-0.0488 c -0.003,-0.0268 -0.009,-0.85407 -0.0132,-1.83829 l -0.007,-1.78948 -0.0459,-0.039 c -0.10726,-0.0911 -0.20799,-0.29252 -0.26103,-0.52207 -0.0339,-0.1466 -0.0421,-0.43103 -0.0168,-0.58465 0.0226,-0.13755 0.0855,-0.33359 0.13956,-0.43504 0.0485,-0.0909 0.13155,-0.18135 0.20806,-0.22645 0.038,-0.0224 0.0602,-0.0436 0.0603,-0.0576 5.3e-4,-0.0423 0.0613,-0.29726 0.0963,-0.40302 0.046,-0.13941 0.10595,-0.2381 0.21686,-0.35725 0.16208,-0.17412 0.37184,-0.32475 0.57458,-0.41261 0.10415,-0.0451 0.29831,-0.0983 0.35899,-0.0983 h 0.0386 l 0.008,-0.0826 c 0.01,-0.095 0.0331,-0.13337 0.0942,-0.15355 0.0335,-0.0111 0.0482,-0.01 0.083,0.007 0.0553,0.0262 0.0767,0.0703 0.0767,0.15782 0,0.0682 0.001,0.0715 0.0325,0.0779 0.0179,0.004 0.0909,0.0252 0.16241,0.0478 0.23097,0.0732 0.45874,0.21584 0.67611,0.42338 0.14282,0.13636 0.21001,0.22562 0.27388,0.36386 0.0448,0.097 0.15441,0.40897 0.15441,0.43953 0,0.008 0.0199,0.0286 0.0443,0.0448 0.21073,0.13983 0.34557,0.47944 0.34545,0.87004 -6e-5,0.18715 -0.0364,0.41063 -0.089,0.5477 -0.007,0.0193 0.009,0.0207 0.24004,0.0207 h 0.24798 l 0.0752,-0.0349 c 0.23671,-0.11003 0.50119,-0.0432 0.72841,0.184 l 0.0757,0.0757 0.10987,-0.008 0.10987,-0.008 0.006,-0.0367 c 0.005,-0.031 -0.0183,-0.078 -0.14954,-0.30216 l -0.15543,-0.26545 -0.0491,-0.008 c -0.13249,-0.0226 -0.21165,-0.0852 -0.36857,-0.29134 -0.16804,-0.22074 -0.27329,-0.41477 -0.3275,-0.60379 -0.0588,-0.20481 -0.0234,-0.37247 0.10956,-0.52042 0.0963,-0.1071 0.20826,-0.15827 0.37714,-0.17235 0.17229,-0.0144 0.29525,0.0286 0.40974,0.14305 0.0916,0.0916 0.16024,0.20617 0.26729,0.44606 0.0499,0.11183 0.11096,0.23494 0.13569,0.27357 0.0793,0.12387 0.0947,0.20759 0.0612,0.33319 l -0.0162,0.0609 0.11702,0.21795 0.11702,0.21795 0.0748,0.007 c 0.14122,0.0132 0.28267,0.10232 0.38531,0.24281 0.053,0.0725 0.0931,0.16204 0.094,0.20996 2.7e-4,0.0197 0.0102,0.0271 0.0448,0.0335 0.14592,0.0271 0.28422,0.17824 0.30477,0.33318 0.0236,0.17781 -0.12155,0.41179 -0.28489,0.45927 -0.0352,0.0102 -0.0738,0.0155 -0.0857,0.0117 -0.0203,-0.006 -0.0224,0.008 -0.0331,0.22393 l -0.0114,0.23081 -0.038,0.0381 -0.038,0.0381 -0.21583,0.004 c -0.20535,0.003 -0.21739,0.002 -0.24786,-0.0215 -0.0176,-0.0139 -0.1046,-0.12713 -0.19328,-0.25171 -0.0887,-0.12458 -0.16458,-0.23037 -0.16864,-0.2351 -0.004,-0.005 -0.10556,-1.3e-4 -0.22556,0.0102 l -0.21819,0.0188 -0.0532,0.0442 c -0.21074,0.17505 -0.43642,0.21626 -0.64745,0.11822 -0.041,-0.019 -0.0908,-0.0462 -0.11062,-0.0603 l -0.036,-0.0257 -0.37956,0.0264 c -0.20875,0.0145 -0.38032,0.0273 -0.38125,0.0284 -0.001,0.001 -0.006,0.6438 -0.0104,1.42825 l -0.009,1.42627 0.59506,-2e-5 c 0.32728,-2e-5 0.70998,-0.004 0.85044,-0.008 l 0.25537,-0.008 -0.0585,-0.072 c -0.1215,-0.14956 -0.17568,-0.31318 -0.19888,-0.60068 -0.022,-0.27243 0.0115,-0.7048 0.0893,-1.15192 0.0314,-0.1805 0.0465,-0.21654 0.10008,-0.23873 0.0511,-0.0211 2.04488,0.0537 2.0988,0.0788 0.0503,0.0234 0.0699,0.0703 0.0871,0.20871 l 0.0145,0.11633 0.0604,-0.007 c 0.0332,-0.004 0.14127,-0.0103 0.24009,-0.0146 l 0.17968,-0.008 0.0401,0.0401 c 0.0427,0.0427 0.0433,0.0449 0.0856,0.31222 0.0102,0.0646 0.0216,0.20307 0.0253,0.30762 0.008,0.21947 -0.008,0.31952 -0.0729,0.4607 -0.0653,0.14224 -0.16048,0.22619 -0.28727,0.25339 -0.05,0.0107 -0.0799,0.01 -0.15446,-0.005 -0.0509,-0.0103 -0.0956,-0.0187 -0.0994,-0.0187 -0.004,0 -0.0157,0.0304 -0.0265,0.0676 -0.0225,0.0774 -0.0531,0.14111 -0.10233,0.21297 l -0.0344,0.0502 h 0.28763 c 0.28322,0 0.28855,5.3e-4 0.34696,0.0296 0.18732,0.0934 0.31906,0.36174 0.27678,0.56388 -0.0196,0.0941 -0.0761,0.1721 -0.15384,0.2127 l -0.0622,0.0325 -3.73412,-2.6e-4 c -3.45413,-2.5e-4 -3.7371,-0.002 -3.7739,-0.0199 z m 7.46811,-0.2466 c 0.0148,-0.0385 0.006,-0.12899 -0.0162,-0.17579 -0.0129,-0.0266 -0.0445,-0.069 -0.0702,-0.0941 l -0.0468,-0.0457 -2.82658,0.0135 c -1.55462,0.007 -3.17712,0.0169 -3.60554,0.0211 l -0.77895,0.008 -0.0626,0.0626 c -0.0361,0.0361 -0.0626,0.0732 -0.0626,0.0876 0,0.0142 0.0253,0.0502 0.0585,0.0834 l 0.0585,0.0585 h 3.67276 c 3.33818,0 3.67341,-0.002 3.67992,-0.0187 z m -5.0878,-0.54429 0.48608,-0.008 0.007,-0.17822 c 0.004,-0.098 0.0102,-0.92564 0.0142,-1.83914 l 0.007,-1.66091 -0.0278,-0.007 c -0.0777,-0.0193 -0.4625,-0.0334 -0.70233,-0.0257 l -0.26108,0.008 -0.008,1.19469 c -0.009,1.40635 -0.0189,1.77664 -0.0485,1.82171 -0.0496,0.0757 -0.16545,0.0735 -0.21059,-0.004 -0.0216,-0.0372 -0.0219,-0.0558 -0.008,-0.57287 0.0134,-0.50802 0.0219,-2.40037 0.0108,-2.41147 -0.003,-0.003 -0.15667,0.008 -0.34175,0.0236 -0.18507,0.0159 -0.43928,0.0323 -0.56489,0.0365 l -0.22841,0.008 0.007,1.08777 c 0.004,0.59827 0.0103,1.41332 0.0143,1.81123 l 0.007,0.72347 0.68072,-10e-6 c 0.37439,-1e-5 0.89944,-0.004 1.16679,-0.008 z m 4.13215,-0.0613 c 0.1265,-0.13672 0.18537,-0.24164 0.21354,-0.38057 0.0263,-0.12966 0.0366,-0.61585 0.018,-0.84498 -0.0171,-0.20976 -0.0488,-0.46899 -0.0585,-0.4785 -0.007,-0.007 -1.57861,-0.0704 -1.71558,-0.0697 l -0.0544,2.7e-4 -0.0256,0.1506 c -0.0814,0.47941 -0.0936,0.98585 -0.0298,1.23728 0.0239,0.0943 0.0796,0.17599 0.2149,0.31543 l 0.11227,0.1157 h 0.64148 0.64148 l 0.0421,-0.0455 z m 0.77105,-0.62891 c 0.0548,-0.1074 0.0688,-0.22692 0.051,-0.43494 -0.008,-0.0882 -0.0197,-0.19701 -0.0271,-0.2418 l -0.0133,-0.0814 -0.14791,0.008 c -0.0814,0.004 -0.15004,0.01 -0.15263,0.0126 -0.003,0.003 0.002,0.10212 0.009,0.22116 0.008,0.11905 0.0121,0.29972 0.01,0.40149 -0.002,0.10178 -2.7e-4,0.18866 0.004,0.19308 0.0165,0.0165 0.18029,0.0256 0.20458,0.0113 0.013,-0.008 0.041,-0.0479 0.0622,-0.0894 z m -1.43455,-2.07474 c 0.003,-0.005 0.009,-0.0713 0.0134,-0.14765 l 0.008,-0.13878 h -0.18197 c -0.10008,0 -0.18541,0.003 -0.18962,0.008 -0.007,0.007 0.0337,0.0693 0.14809,0.22563 l 0.0454,0.062 h 0.0757 c 0.0416,0 0.078,-0.004 0.0808,-0.009 z m -1.41462,-0.30375 c 0.0914,-0.0445 0.20346,-0.15668 0.24821,-0.24845 0.046,-0.0943 0.0481,-0.197 0.006,-0.28348 -0.0421,-0.0861 -0.14922,-0.18819 -0.24514,-0.23362 -0.0667,-0.0316 -0.0944,-0.0381 -0.16302,-0.0381 -0.1084,0 -0.17611,0.0329 -0.27833,0.13508 -0.10415,0.10415 -0.13511,0.16935 -0.13496,0.28424 1e-4,0.0758 0.005,0.0979 0.0354,0.15355 0.0501,0.0923 0.15481,0.19392 0.24418,0.23698 0.0966,0.0466 0.18322,0.0447 0.28786,-0.006 z m -0.98982,-0.0667 c 0.13155,-0.008 0.23919,-0.0191 0.23919,-0.0248 0,-0.006 -0.0107,-0.0312 -0.0237,-0.0568 -0.0391,-0.0767 -0.0622,-0.19709 -0.0538,-0.28114 0.008,-0.0761 0.0504,-0.20665 0.083,-0.25323 0.01,-0.0142 0.0181,-0.03 0.0181,-0.035 0,-0.005 -0.0811,-0.009 -0.18024,-0.009 -0.16514,0 -0.18143,0.002 -0.19445,0.0228 -0.0183,0.0293 -0.10913,0.0918 -0.14731,0.10142 -0.0295,0.007 -0.0295,0.008 -0.0372,0.19262 -0.004,0.10187 -0.008,0.22683 -0.008,0.27769 l -3e-5,0.0925 0.0325,-0.006 c 0.0179,-0.003 0.14012,-0.0127 0.27167,-0.0207 z m 1.86921,-0.15373 c 0.0877,-0.007 0.31789,-0.0144 0.51154,-0.0165 0.27026,-0.003 0.35647,-0.008 0.37099,-0.0195 0.0279,-0.0231 0.0619,-0.10448 0.0622,-0.14894 2.6e-4,-0.047 -0.0279,-0.093 -0.0694,-0.11324 -0.0308,-0.0151 -0.52574,-0.01 -1.0241,0.0107 l -0.19017,0.008 -7.9e-4,0.0963 c -2.7e-4,0.053 -0.009,0.12222 -0.0188,0.15394 l -0.0181,0.0577 0.10857,-0.008 c 0.0597,-0.004 0.18034,-0.0135 0.26804,-0.0204 z m 0.58692,-0.56966 c 0.0299,-0.0299 -0.11051,-0.1796 -0.20091,-0.21413 -0.0541,-0.0207 -0.0599,-0.0207 -0.12041,-0.002 -0.1132,0.0357 -0.24198,0.15308 -0.24198,0.2206 0,0.0115 0.0605,0.0133 0.27823,0.008 0.15302,-0.003 0.2813,-0.009 0.28507,-0.0132 z m -4.56954,-0.0614 c 0.83292,-0.0705 1.23005,-0.0747 1.62027,-0.0171 0.0877,0.0129 0.16351,0.0236 0.16846,0.0236 0.0192,1.2e-4 0.0907,-0.12987 0.12521,-0.22755 0.056,-0.15876 0.0765,-0.28671 0.0759,-0.4752 -8e-4,-0.24096 -0.0481,-0.43394 -0.13908,-0.56705 -0.0643,-0.094 -0.0785,-0.0985 -0.27185,-0.0875 -0.73328,0.042 -1.69515,0.0435 -2.36285,0.004 l -0.13167,-0.008 -0.047,0.0424 c -0.0923,0.0833 -0.17213,0.3064 -0.1921,0.53648 -0.0291,0.33556 0.079,0.73079 0.22249,0.8133 0.0439,0.0253 0.32855,0.0139 0.93217,-0.0372 z m 3.97164,-0.29059 c 0.032,-0.027 0.0582,-0.0527 0.0582,-0.0572 0,-0.007 -0.13905,-0.27046 -0.14902,-0.28222 -0.002,-0.003 -0.0406,0.0136 -0.0854,0.0359 l -0.0815,0.0405 0.0761,0.12944 c 0.0937,0.15931 0.10862,0.18259 0.11681,0.18259 0.004,0 0.0327,-0.0221 0.0647,-0.0491 z m -0.32706,-0.50797 c 0.0781,-0.0176 0.14171,-0.0814 0.16665,-0.16721 0.0214,-0.0736 0.0174,-0.0894 -0.048,-0.19169 -0.0242,-0.0379 -0.0986,-0.18182 -0.16535,-0.31984 -0.12976,-0.26851 -0.18424,-0.34592 -0.26136,-0.37137 -0.0518,-0.0171 -0.23307,-0.009 -0.27798,0.0126 -0.0421,0.0201 -0.11064,0.12135 -0.12864,0.18999 -0.0174,0.0663 0.004,0.16332 0.0644,0.29644 0.068,0.14901 0.26683,0.44522 0.35373,0.52686 0.0507,0.0477 0.1549,0.0562 0.29658,0.0242 z m -2.43772,-0.79015 c 0.19814,-0.007 0.36679,-0.0147 0.37478,-0.0173 0.0191,-0.006 -0.0495,-0.20687 -0.12308,-0.35998 -0.0474,-0.0987 -0.0683,-0.12655 -0.17347,-0.23101 -0.42797,-0.42516 -0.84756,-0.54257 -1.28629,-0.35992 -0.2301,0.0958 -0.53912,0.35381 -0.60938,0.50881 -0.0412,0.0909 -0.0763,0.20413 -0.10677,0.34493 l -0.0224,0.10335 0.0372,0.002 c 0.0205,7.9e-4 0.11429,0.005 0.20849,0.01 0.28048,0.0135 1.31372,0.0135 1.7009,-8e-5 z"
       id="path186" />
    <path
       style="fill:#ffffff;stroke-width:0.0118118"
       d="m 101.17542,135.28362 c -0.0249,-0.0379 -0.007,-0.0729 0.045,-0.0869 0.021,-0.006 0.16994,-0.0364 0.33089,-0.0682 0.3183,-0.0629 0.33034,-0.0627 0.33703,0.004 0.003,0.0261 -0.003,0.0398 -0.0186,0.0483 -0.0229,0.0123 -0.61602,0.13143 -0.65414,0.13143 -0.0118,0 -0.0299,-0.0129 -0.0402,-0.0287 z"
       id="path188" />
    <path
       style="fill:#ffffff;stroke-width:0.0118118"
       d="m 101.23949,135.07171 c -0.0151,-0.033 10e-4,-0.0731 0.0339,-0.0829 0.0281,-0.008 0.61584,-0.0898 0.64915,-0.0898 0.0369,0 0.0684,0.0496 0.0516,0.0811 -0.007,0.013 -0.0219,0.0266 -0.0333,0.0302 -0.0371,0.0118 -0.59556,0.0896 -0.64267,0.0896 -0.0368,0 -0.0484,-0.006 -0.0587,-0.028 z"
       id="path190" />
    <path
       style="fill:#ffffff;stroke-width:0.0118118"
       d="m 101.37325,134.88477 c -0.0224,-0.0224 -0.0172,-0.0779 0.009,-0.0917 0.043,-0.023 0.60278,-0.10785 0.62681,-0.095 0.0261,0.0139 0.039,0.048 0.0286,0.075 -0.0102,0.0267 -0.0557,0.0377 -0.35041,0.0847 -0.28833,0.0461 -0.29395,0.0465 -0.31364,0.0269 z"
       id="path192" />
    <path
       style="fill:#ffffff;stroke-width:0.0118118"
       d="m 101.61598,134.66176 c -0.0284,-0.0166 -0.0272,-0.0774 0.002,-0.0929 0.0269,-0.0144 0.40448,-0.0951 0.44486,-0.0951 0.0385,0 0.0705,0.0487 0.0532,0.0811 -0.0155,0.0289 -0.009,0.0269 -0.25292,0.078 -0.2203,0.0462 -0.21787,0.0459 -0.24698,0.0289 z"
       id="path194" />
    <path
       style="fill:#ffffff;stroke-width:0.0118118"
       d="m 104.46357,137.29378 c -0.028,-0.0226 -0.0334,-0.0509 -0.0148,-0.0774 0.0209,-0.0298 0.23037,-0.10187 0.26459,-0.091 0.0278,0.009 0.0444,0.0606 0.0278,0.0868 -0.006,0.01 -0.064,0.0357 -0.12827,0.0572 -0.13449,0.0451 -0.12548,0.0436 -0.14931,0.0244 z"
       id="path196" />
    <path
       style="fill:#ffffff;stroke-width:0.0118118"
       d="m 104.36714,137.52039 c -0.0181,-0.0258 -0.0143,-0.0625 0.008,-0.0795 0.0166,-0.0126 0.29167,-0.10878 0.31089,-0.10872 0.0374,1e-4 0.0628,0.0577 0.0408,0.0924 -0.0108,0.0171 -0.28646,0.12025 -0.32122,0.12025 -0.0118,0 -0.0292,-0.011 -0.0386,-0.0244 z"
       id="path198" />
    <path
       style="fill:#ffffff;stroke-width:0.0118118"
       d="m 104.51125,137.70553 c -0.009,-0.019 -0.009,-0.0351 -0.001,-0.0492 0.0149,-0.0266 0.21196,-0.14695 0.24059,-0.14695 0.0325,0 0.0621,0.0517 0.0464,0.0811 -0.0176,0.0328 -0.20406,0.14334 -0.24193,0.14334 -0.0213,0 -0.0351,-0.009 -0.044,-0.0282 z"
       id="path200" />
    <path
       style="fill:#ffffff;stroke-width:0.0118118"
       d="m 104.23239,139.73631 c -0.0502,-0.0222 -0.0813,-0.0847 -0.0656,-0.13185 0.0133,-0.0401 0.0775,-0.0871 0.11886,-0.0871 0.0442,0 0.12089,0.0819 0.12089,0.1291 0,0.037 -0.046,0.0951 -0.0755,0.0955 -0.007,9e-5 -0.0237,0.003 -0.0367,0.006 -0.013,0.003 -0.0409,-0.002 -0.0619,-0.0113 z"
       id="path202" />
    <path
       style="fill:#ffffff;stroke-width:0.0118118"
       d="m 105.64083,140.60522 c -0.0393,-0.017 -0.0675,-0.0568 -0.078,-0.11012 -0.0285,-0.14467 0.005,-0.86921 0.0441,-0.94508 0.009,-0.0177 0.0321,-0.0403 0.0512,-0.0502 0.0551,-0.0285 0.0927,-0.0224 0.13741,0.0223 0.0485,0.0485 0.0493,0.0642 0.0211,0.37934 -0.0136,0.15266 -0.0169,0.2713 -0.0116,0.42166 l 0.007,0.20923 -0.0327,0.0363 c -0.0349,0.0387 -0.0966,0.055 -0.13901,0.0367 z"
       id="path204" />
    <path
       style="fill:#ffffff;stroke-width:0.0118118"
       d="m 106.12847,140.6196 c -0.061,-0.0391 -0.0618,-0.0493 -0.0477,-0.56127 0.0144,-0.51975 0.0136,-0.51506 0.0906,-0.54726 0.0407,-0.017 0.0788,-0.0124 0.12082,0.0147 0.0537,0.0346 0.0551,0.0544 0.0398,0.54938 -0.0146,0.47286 -0.018,0.50154 -0.0639,0.53966 -0.0303,0.0252 -0.10389,0.0277 -0.13963,0.005 z"
       id="path206" />
    <path
       style="fill:#ffffff;stroke-width:0.0118118"
       d="m 106.59474,140.61008 c -0.023,-0.01 -0.0461,-0.0329 -0.0578,-0.0575 -0.0182,-0.0381 -0.0181,-0.0556 0.002,-0.25752 0.0293,-0.3017 0.0355,-0.51476 0.0178,-0.61775 -0.0127,-0.0744 -0.0121,-0.0898 0.005,-0.12231 0.0341,-0.066 0.11048,-0.09 0.17155,-0.054 0.0467,0.0276 0.0576,0.0508 0.0775,0.16518 0.0223,0.12798 0.0225,0.26242 5.3e-4,0.45947 -0.009,0.0845 -0.0225,0.21081 -0.0291,0.28079 -0.0135,0.14336 -0.022,0.16566 -0.0753,0.19817 -0.0443,0.027 -0.0601,0.0278 -0.11136,0.005 z"
       id="path208" />
    <path
       style="fill:#ffffff;stroke-width:0.0118118"
       d="m 107.6597,137.2154 c -0.02,-0.0122 -0.0435,-0.0394 -0.0522,-0.0603 -0.0139,-0.0335 -0.0132,-0.043 0.005,-0.0776 0.0244,-0.0452 0.0902,-0.0813 0.13006,-0.0713 0.015,0.004 0.0438,0.0257 0.064,0.0487 0.0555,0.0632 0.0467,0.12939 -0.0221,0.16493 -0.0458,0.0237 -0.0811,0.0224 -0.1252,-0.004 z"
       id="path210" />
    <path
       style="fill:#ffffff;stroke-width:0.0118118"
       d="m 107.44213,136.30845 c -0.0292,-0.0114 -0.0727,-0.0552 -0.084,-0.0846 -0.025,-0.0648 0.0659,-0.15674 0.13719,-0.13884 0.0182,0.005 0.0485,0.0248 0.0673,0.0449 0.0651,0.0697 0.0296,0.16473 -0.0674,0.1799 -0.0195,0.003 -0.0434,0.002 -0.0532,-0.001 z"
       id="path212" />
    <path
       style="fill:#ffffff;stroke-width:0.0118118"
       d="m 107.26633,135.56477 c -0.04,-0.028 -0.0604,-0.0874 -0.0604,-0.17564 0,-0.13009 0.0436,-0.19489 0.13097,-0.19489 0.0938,0 0.13337,0.0681 0.12717,0.219 -0.004,0.0978 -0.006,0.10321 -0.0428,0.13632 -0.0447,0.04 -0.1104,0.0464 -0.15494,0.0152 z"
       id="path214" />
    <path
       style="fill:#ffffff;stroke-width:0.0118118"
       d="m 106.888,135.14742 c -0.056,-0.009 -0.10131,-0.0491 -0.11433,-0.10097 -0.009,-0.0376 0.028,-0.11332 0.0661,-0.13335 0.0395,-0.0208 0.2473,-0.009 0.29703,0.0163 0.0492,0.0255 0.0746,0.0885 0.057,0.14167 -0.0225,0.0682 -0.06,0.088 -0.16373,0.0863 -0.0495,-8e-4 -0.11341,-0.005 -0.14207,-0.01 z"
       id="path216" />
    <path
       style="fill:#ffffff;stroke-width:0.0118118"
       d="m 107.23856,134.88813 -0.0386,-0.0344 -0.004,-0.13778 c -0.004,-0.15414 0.005,-0.19186 0.0565,-0.22222 0.0509,-0.0301 0.10058,-0.0253 0.14441,0.0139 0.0372,0.0332 0.038,0.0361 0.046,0.16832 0.006,0.0983 0.004,0.1444 -0.007,0.17134 -0.0333,0.0815 -0.12975,0.10144 -0.19752,0.0409 z"
       id="path218" />
    <path
       style="fill:#ffffff;stroke-width:0.0118118"
       d="m 107.59111,135.14764 c -0.10726,-0.0149 -0.15606,-0.10962 -0.10206,-0.19818 0.0293,-0.048 0.0605,-0.0557 0.18983,-0.0465 0.12038,0.009 0.1601,0.0234 0.18345,0.0685 0.031,0.06 0.0103,0.14737 -0.0416,0.17511 -0.0247,0.0132 -0.13788,0.0137 -0.22964,0.001 z"
       id="path220" />
    <path
       style="fill:#ffffff;stroke-width:0.0118118"
       d="m 106.27726,134.25103 c -0.0427,-0.0268 -0.0674,-0.0847 -0.0525,-0.12325 0.0151,-0.0391 0.0621,-0.078 0.10464,-0.0865 0.033,-0.007 0.0437,-0.002 0.0851,0.0398 0.0369,0.0369 0.0473,0.0563 0.0473,0.088 0,0.0822 -0.10784,0.13008 -0.18449,0.082 z"
       id="path222" />
    <path
       style="fill:#ffffff;stroke-width:0.0118118"
       d="m 101.05872,140.45553 c -0.0132,-0.0132 -0.0185,-0.0413 -0.0183,-0.0975 7.9e-4,-0.23849 0.0702,-2.62171 0.077,-2.63918 0.0128,-0.0328 0.0626,-0.0395 0.09,-0.0121 0.0232,0.0232 0.0232,0.0289 -0.0129,1.37369 -0.0324,1.20886 -0.0382,1.35264 -0.0558,1.37201 -0.024,0.0265 -0.0554,0.0277 -0.08,0.003 z"
       id="path224" />
  </g>
</svg>
